#  ==========================================================================
#  
#  Wavefront OBJ format exported by Red-i Productions' "Riptide Pro"
#     (a commercial plugin for Cinema 4D PC & Mac, R9.6 or later)
#  
#  Red-i Productions
#  http://skinprops.com
#  
#  ==========================================================================
mtllib Promo_Scene_Heart_Drive.mtl
o disk
v 5.48204 3.49245 -2
v 7.87846 1.38919 -0
v -7.35677 -2.86089 -1.5759
v 7.9981 -0.174519 -0
v -7.05889 -2.74505 -1.89398
v 7.81037 -1.73152 -0
v -7.77354 -1.37069 -1.5759
v 7.32249 -3.22197 -0
v -7.45879 -1.31519 -1.89398
v 6.55322 -4.58861 -0
v -7.57205 0.165223 -1.89398
v 5.5321 -5.77891 -0
v -7.89158 0.172195 -1.5759
v 4.2984 -6.74713 -0
v -7.70636 1.70846 -1.5759
v 2.8995 -7.45606 -0
v -7.39432 1.63928 -1.89398
v 1.38919 -7.87846 -0
v -7.22498 3.17907 -1.5759
v -0.174519 -7.9981 -0
v -6.93243 3.05034 -1.89398
v -1.73152 -7.81037 -0
v -6.20414 4.34418 -1.89398
v -3.22197 -7.32249 -0
v -6.46595 4.5275 -1.5759
v -4.58861 -6.55322 -0
v -5.23742 5.47108 -1.89398
v -5.77891 -5.5321 -0
v -5.45843 5.70195 -1.5759
v -6.74713 -4.2984 -0
v -4.06943 6.38772 -1.89398
v -7.45606 -2.8995 -0
v -4.24115 6.65728 -1.5759
v -7.87846 -1.38919 -0
v -2.74505 7.05889 -1.89398
v -7.9981 0.174519 -0
v -2.86089 7.35677 -1.5759
v -7.81037 1.73152 -0
v -1.31519 7.45879 -1.89398
v -7.32249 3.22197 -0
v -1.37069 7.77354 -1.5759
v -6.55322 4.58861 -0
v 0.165223 7.57205 -1.89398
v -5.5321 5.77891 -0
v 0.172195 7.89158 -1.5759
v -4.2984 6.74713 -0
v 1.63928 7.39432 -1.89398
v -2.8995 7.45606 -0
v 1.70846 7.70636 -1.5759
v -1.38919 7.87846 -0
v 3.05034 6.93243 -1.89398
v 0.174519 7.9981 -0
v 3.17907 7.22498 -1.5759
v 1.73152 7.81037 -0
v 4.34418 6.20414 -1.89398
v 3.22197 7.32249 -0
v 4.5275 6.46595 -1.5759
v 4.58861 6.55322 -0
v 5.47108 5.23742 -1.89398
v 5.77891 5.5321 -0
v 5.70195 5.45843 -1.5759
v 6.74713 4.2984 -0
v 6.38772 4.06943 -1.89398
v 7.45606 2.8995 -0
v 6.65728 4.24115 -1.5759
v 7.9981 -0.174519 -1.17
v 7.05712 1.24436 -2
v 7.81037 -1.73152 -1.17
v 7.16428 -0.156325 -2
v 7.32249 -3.22197 -1.17
v 6.99612 -1.551 -2
v 6.55322 -4.58861 -1.17
v 6.55911 -2.88608 -2
v 5.5321 -5.77891 -1.17
v 5.87003 -4.11024 -2
v 4.95537 -5.17645 -2
v 4.2984 -6.74713 -1.17
v 2.8995 -7.45606 -1.17
v 3.85028 -6.04373 -2
v 2.59723 -6.67875 -2
v 1.38919 -7.87846 -1.17
v -0.174519 -7.9981 -1.17
v 1.24436 -7.05712 -2
v -0.156325 -7.16428 -2
v -1.73152 -7.81037 -1.17
v -3.22197 -7.32249 -1.17
v -4.58861 -6.55322 -1.17
v -2.88608 -6.55911 -2
v -1.551 -6.99612 -2
v -4.11024 -5.87003 -2
v -5.77891 -5.5321 -1.17
v -7.45606 -2.8995 -1.17
v -6.74713 -4.2984 -1.17
v -5.17645 -4.95537 -2
v -7.87846 -1.38919 -1.17
v -6.67875 -2.59723 -2
v -6.04373 -3.85028 -2
v -7.05712 -1.24436 -2
v -7.9981 0.174519 -1.17
v -7.32249 3.22197 -1.17
v -7.16428 0.156325 -2
v -7.81037 1.73152 -1.17
v -6.55911 2.88608 -2
v -6.55322 4.58861 -1.17
v -6.99612 1.551 -2
v 6.67875 2.59723 -2
v 7.87846 1.38919 -1.17
v -5.87003 4.11024 -2
v -5.5321 5.77891 -1.17
v -4.95537 5.17645 -2
v -4.2984 6.74713 -1.17
v -3.85028 6.04373 -2
v -2.8995 7.45606 -1.17
v -2.59723 6.67875 -2
v -1.38919 7.87846 -1.17
v -1.24436 7.05712 -2
v 0.174519 7.9981 -1.17
v 0.156325 7.16428 -2
v 1.73152 7.81037 -1.17
v 1.551 6.99612 -2
v 3.22197 7.32249 -1.17
v 2.88608 6.55911 -2
v 4.58861 6.55322 -1.17
v 4.11024 5.87003 -2
v 5.77891 5.5321 -1.17
v 5.17645 4.95537 -2
v 6.74713 4.2984 -1.17
v 6.04373 3.85028 -2
v 7.45606 2.8995 -1.17
v 7.77354 1.37069 -1.5759
v 7.45879 1.31519 -1.89398
v 7.05889 2.74505 -1.89398
v 7.35677 2.86089 -1.5759
v 7.89158 -0.172195 -1.5759
v 7.57205 -0.165223 -1.89398
v 7.70636 -1.70846 -1.5759
v 7.39432 -1.63928 -1.89398
v 7.22498 -3.17907 -1.5759
v 6.93243 -3.05034 -1.89398
v 6.46595 -4.5275 -1.5759
v 6.20414 -4.34418 -1.89398
v 5.45843 -5.70195 -1.5759
v 5.23742 -5.47108 -1.89398
v 4.06943 -6.38772 -1.89398
v 4.24115 -6.65728 -1.5759
v 2.86089 -7.35677 -1.5759
v 2.74505 -7.05889 -1.89398
v 1.31519 -7.45879 -1.89398
v 1.37069 -7.77354 -1.5759
v -0.172195 -7.89158 -1.5759
v -0.165223 -7.57205 -1.89398
v -1.63928 -7.39432 -1.89398
v -1.70846 -7.70636 -1.5759
v -3.17907 -7.22498 -1.5759
v -3.05034 -6.93243 -1.89398
v -4.5275 -6.46595 -1.5759
v -4.34418 -6.20414 -1.89398
v -5.47108 -5.23742 -1.89398
v -5.70195 -5.45843 -1.5759
v -6.65728 -4.24115 -1.5759
v -6.38772 -4.06943 -1.89398
v 6.40125 1.12871 -2
v 6.49845 -0.141797 -2
v 6.34592 -1.40686 -2
v 5.94952 -2.61785 -2
v 5.32449 -3.72825 -2
v 4.49483 -4.69537 -2
v 3.49245 -5.48204 -2
v 2.35585 -6.05805 -2
v 1.12871 -6.40125 -2
v -0.141797 -6.49845 -2
v -2.61785 -5.94952 -2
v -1.40686 -6.34592 -2
v -3.72825 -5.32449 -2
v -4.69537 -4.49483 -2
v -6.05805 -2.35585 -2
v -5.48204 -3.49245 -2
v -6.40125 -1.12871 -2
v -6.49845 0.141797 -2
v -5.94952 2.61785 -2
v -6.34592 1.40686 -2
v 6.05805 2.35585 -2
v -5.32449 3.72825 -2
v -4.49483 4.69537 -2
v -3.49245 5.48204 -2
v -2.35585 6.05805 -2
v -1.12871 6.40125 -2
v 0.141797 6.49845 -2
v 1.40686 6.34592 -2
v 2.61785 5.94952 -2
v 3.72825 5.32449 -2
v 4.69537 4.49483 -2
v 3.99567 4.51239 -2
v 2.40189 -0.845765 -2
v 4.86391 -0.411644 -2
v 1.53365 4.07827 -2
v 1.44807 -1.01395 -2
v -1.01395 -1.44807 -2
v 1.01395 1.44807 -2
v -1.44807 1.01395 -2
v 1.44807 -1.01395 -0
v -1.01395 -1.44807 -0
v 1.01395 1.44807 -0
v -1.44807 1.01395 -0
v 3.99567 4.51239 -0
v 2.40189 -0.845765 -0
v 4.86391 -0.411644 -0
v 1.53365 4.07827 -0
v -26.745 -37.2095 -2
v 29.9572 36.8134 2
v 29.54 37.2562 2
v 28.9812 37.4969 2
v 29.9572 36.8134 -2
v 29.54 37.2562 -2
v -26.745 -37.2095 2
v 28.9812 37.4969 -2
v 29.1921 -27.3463 2
v 18.0786 35.6814 2
v 29.1921 -27.3463 -2
v 18.0786 35.6814 -2
v -18.0786 -35.6814 2
v -29.1921 27.3463 2
v -18.0786 -35.6814 -2
v -29.1921 27.3463 -2
v -32.5011 -22.9931 2
v 38.4051 -10.4904 2
v 38.4051 -10.4904 -2
v -32.5011 -22.9931 -2
v 26.5874 -12.5742 2
v 26.5874 -12.5742 -2
v -20.6834 -20.9093 2
v -20.6834 -20.9093 -2
v -25.4153 5.92672 -2
v 2.95202 -16.7417 -1.5
v 5.46992 -31.0214 1.5
v -37.1461 3.35054 -2
v 2.95202 -16.7417 1.5
v 5.46992 -31.0214 -1.5
v -25.3285 5.43432 -2
v -25.3719 5.68052 1.75
v 29.1053 -26.8539 1.5
v 29.1053 -26.8539 -1.5
v -18.1655 -35.189 1.5
v -18.1655 -35.189 -1.5
v 26.5874 -12.5742 1.5
v 26.5874 -12.5742 -1.5
v -20.6834 -20.9093 1.5
v -20.6834 -20.9093 -1.5
v 19.2942 28.7878 -1.7
v -27.9766 20.4526 -2
v 26.2401 -10.6046 2
v 26.2401 -10.6046 1.7
v -27.9766 20.4526 -1.7
v 19.2942 28.7878 -2
v -21.0307 -18.9397 2
v -21.0307 -18.9397 1.7
v 18.1047 35.5337 1.7
v 18.1047 35.5337 -1.7
v -29.14 27.0508 1.7
v -29.14 27.0508 -1.7
v -27.7304 20.496 -1.75
v -37.1461 3.35054 2
v -37.233 3.84295 2
v -25.4153 5.92672 2
v -25.3285 5.43432 2
v -37.233 3.84295 -2
v -36.9434 3.64016 1.75
v -36.9434 3.64016 -1.75
v -20.191 -20.8225 -2
v -27.4842 20.5395 -2
v -20.4372 -20.8659 -1.75
v -25.1257 5.72393 -1.75
v -4.56705 7.16883 -2
v 8.49798 -0.185427 -2
v 8.29852 -1.83974 -2
v -3.08072 7.92207 -2
v 7.78015 -3.42335 -2
v -6.14009 -5.87786 -2
v -7.92207 -3.08072 -2
v -8.37087 -1.47601 -2
v -8.49798 0.185427 -2
v -8.29852 1.83974 -2
v -7.78015 3.42335 -2
v -6.96279 4.8754 -2
v 8.37087 1.47601 -1.17934
v 8.49798 -0.185427 -1.17934
v 8.29852 -1.83974 -1.17934
v 7.78015 -3.42335 -1.17934
v 6.96279 -4.8754 -1.17934
v 5.87786 -6.14009 -1.17934
v 4.56705 -7.16883 -1.17934
v 3.08072 -7.92207 -1.17934
v 1.47601 -8.37087 -1.17934
v -0.185427 -8.49798 -1.17934
v -1.83974 -8.29852 -1.17934
v -3.42335 -7.78015 -1.17934
v -4.8754 -6.96279 -1.17934
v -6.14009 -5.87786 -1.17934
v -7.16883 -4.56705 -1.17934
v -7.92207 -3.08072 -1.17934
v -8.37087 -1.47601 -1.17934
v -8.49798 0.185427 -1.17934
v -8.29852 1.83974 -1.17934
v -7.78015 3.42335 -1.17934
v -6.96279 4.8754 -1.17934
v -5.87786 6.14009 -1.17934
v -4.56705 7.16883 -1.17934
v -3.08072 7.92207 -1.17934
v -1.47601 8.37087 -1.17934
v 0.185427 8.49798 -1.17934
v 1.83974 8.29852 -1.17934
v 3.42335 7.78015 -1.17934
v 4.8754 6.96279 -1.17934
v 6.14009 5.87786 -1.17934
v 7.16883 4.56705 -1.17934
v 7.92207 3.08072 -1.17934
v -5.87786 6.14009 -2
v 8.37087 1.47601 -2
v 6.96279 -4.8754 -2
v -1.47601 8.37087 -2
v 5.87786 -6.14009 -2
v 4.56705 -7.16883 -2
v 0.185427 8.49798 -2
v 3.08072 -7.92207 -2
v 1.47601 -8.37087 -2
v 1.83974 8.29852 -2
v -0.185427 -8.49798 -2
v -1.83974 -8.29852 -2
v 3.42335 7.78015 -2
v -3.42335 -7.78015 -2
v -4.8754 -6.96279 -2
v 4.8754 6.96279 -2
v -7.16883 -4.56705 -2
v 6.14009 5.87786 -2
v 7.16883 4.56705 -2
v 7.92207 3.08072 -2
v -8.74685e-016 -1.54231e-016 -1.17934
v -40.7493 23.7853 -2
v -40.7493 23.7853 2
v -39.5326 25.523 2
v -39.5326 25.523 -2
v 40.7493 -23.7853 -2
v 40.7493 -23.7853 2
v 39.5326 -25.523 2
v 39.5326 -25.523 -2
v 30.1568 36.288 2
v 30.1568 36.288 -2
v 28.4191 37.5047 -2
v 28.4191 37.5047 2
v -40.7415 24.3473 -2
v -40.5009 24.9061 -2
v -40.0581 25.3234 -2
v -40.7415 24.3473 2
v -40.5009 24.9061 2
v -40.0581 25.3234 2
v 40.7415 -24.3473 -2
v 40.5009 -24.9061 -2
v 40.0581 -25.3234 -2
v 40.7415 -24.3473 2
v 40.5009 -24.9061 2
v 40.0581 -25.3234 2
v -30.452 -34.6138 2
v -30.452 -34.6138 -2
v -30.2535 -34.9255 2
v -27.1057 -37.1295 2
v -27.1057 -37.1295 -2
v -30.2535 -34.9255 -2
v -19.7464 -22.5351 1.75
v 6.00573 -31.1808 1.75
v -18.8351 -21.2337 -1.75
v 6.00573 -31.1808 -1.75
v -17.6297 -35.3484 1.75
v -17.6297 -35.3484 -1.75
v -19.4255 -21.79 -1.75
v -19.7464 -22.5351 -1.75
v -10.2561 -19.5784 -1.75
v -7.78158 -33.6119 1.75
v -10.2561 -19.5784 1.75
v -7.78158 -33.6119 -1.75
v -13.6904 -34.6538 1.75
v -13.6904 -34.6538 -1.75
v -16.1649 -20.6203 1.75
v -16.1649 -20.6203 -1.75
v -10.048 -20.7584 -1.75
v -10.048 -20.7584 1.75
v -15.9568 -21.8003 1.75
v -13.9772 -33.0271 -1.75
v -8.0684 -31.9852 -1.75
v -8.0684 -31.9852 1.75
v -13.9772 -33.0271 1.75
v -15.9568 -21.8003 -1.75
v 1.56163 -17.4946 -1.75
v 1.56163 -17.4946 1.75
v 3.87854 -19.1169 1.75
v 3.87854 -19.1169 -1.75
v -18.1345 -20.9676 1.75
v -18.1345 -20.9676 -1.75
v -19.7568 -23.2845 -1.75
v -19.7568 -23.2845 1.75
v 2.31102 -17.5051 -1.75
v 3.05608 -17.8259 -1.75
v 3.61242 -18.4163 -1.75
v 2.31102 -17.5051 1.75
v 3.05608 -17.8259 1.75
v 3.61242 -18.4163 1.75
v -18.8351 -21.2337 1.75
v -19.4255 -21.79 1.75
# 407 vertices

vt 0.82407 0.92126
vt 0.82263 0.90662
vt 0.94075 0.94972
vt 0.94833 0.94049
vt 0.90937 0.91835
vt 0.82407 0.89199
vt 0.82834 0.87792
vt 0.95396 0.92995
vt 0.95743 0.91852
vt 0.95860 0.90662
vt 0.90937 0.89490
vt 0.95743 0.89473
vt 0.95396 0.88330
vt 0.94833 0.87276
vt 0.94075 0.86353
vt 0.93151 0.85595
vt 0.92097 0.85031
vt 0.90954 0.84684
vt 0.89765 0.84567
vt 0.88593 0.89490
vt 0.88576 0.84684
vt 0.83527 0.86495
vt 0.87432 0.85031
vt 0.86378 0.85595
vt 0.87684 0.89490
vt 0.84460 0.85358
vt 0.85455 0.86353
vt 0.85597 0.84425
vt 0.85340 0.89490
vt 0.84697 0.87276
vt 0.84134 0.88330
vt 0.83787 0.89473
vt 0.83670 0.90662
vt 0.86894 0.83732
vt 0.88301 0.83305
vt 0.83787 0.91852
vt 0.84134 0.92995
vt 0.85340 0.94179
vt 0.84697 0.94049
vt 0.85455 0.94972
vt 0.86378 0.95730
vt 0.90954 0.96640
vt 0.92097 0.96294
vt 0.87684 0.94179
vt 0.87432 0.96294
vt 0.88576 0.96640
vt 0.89765 0.96758
vt 0.89765 0.83161
vt 0.91228 0.83305
vt 0.88593 0.91835
vt 0.92636 0.83732
vt 0.93932 0.84425
vt 0.95069 0.85358
vt 0.93498 0.85075
vt 0.94516 0.85911
vt 0.95352 0.86929
vt 0.95973 0.88091
vt 0.96002 0.86495
vt 0.96695 0.87792
vt 0.97122 0.89199
vt 0.97266 0.90662
vt 0.96484 0.90662
vt 0.96355 0.91973
vt 0.93151 0.95730
vt 0.96355 0.89352
vt 0.97122 0.92126
vt 0.96695 0.93533
vt 0.96002 0.94830
vt 0.95352 0.94396
vt 0.94516 0.95414
vt 0.83174 0.91973
vt 0.83045 0.90662
vt 0.95973 0.93234
vt 0.95069 0.95967
vt 0.93932 0.96900
vt 0.93498 0.96250
vt 0.92336 0.96871
vt 0.92636 0.97593
vt 0.91076 0.97253
vt 0.91228 0.98020
vt 0.89765 0.97382
vt 0.89765 0.98164
vt 0.88454 0.97253
vt 0.88301 0.98020
vt 0.87193 0.96871
vt 0.86894 0.97593
vt 0.86031 0.96250
vt 0.85597 0.96900
vt 0.85013 0.95414
vt 0.84460 0.95967
vt 0.84178 0.94396
vt 0.83527 0.94830
vt 0.83557 0.93234
vt 0.82834 0.93533
vt 0.93877 0.96817
vt 0.92597 0.97501
vt 0.82363 0.90662
vt 0.82505 0.89218
vt 0.82926 0.87830
vt 0.91209 0.97922
vt 0.83610 0.86550
vt 0.84531 0.85429
vt 0.89765 0.98064
vt 0.85653 0.84508
vt 0.86932 0.83824
vt 0.88321 0.97922
vt 0.88321 0.83403
vt 0.89765 0.83261
vt 0.86932 0.97501
vt 0.91209 0.83403
vt 0.92597 0.83824
vt 0.85653 0.96817
vt 0.93877 0.84508
vt 0.94999 0.85429
vt 0.84531 0.95896
vt 0.95919 0.86550
vt 0.96603 0.87830
vt 0.83610 0.94775
vt 0.97024 0.89218
vt 0.97167 0.90662
vt 0.82926 0.93495
vt 0.97024 0.92106
vt 0.96603 0.93495
vt 0.82505 0.92106
vt 0.95919 0.94775
vt 0.94999 0.95896
vt 0.93710 0.96568
vt 0.92483 0.97224
vt 0.82663 0.90662
vt 0.82799 0.89277
vt 0.83174 0.89352
vt 0.83203 0.87945
vt 0.83557 0.88091
vt 0.91150 0.97628
vt 0.83860 0.86717
vt 0.84178 0.86929
vt 0.84743 0.85641
vt 0.85013 0.85911
vt 0.89765 0.97765
vt 0.85819 0.84757
vt 0.86031 0.85075
vt 0.87047 0.84101
vt 0.87193 0.84454
vt 0.88379 0.97628
vt 0.88379 0.83697
vt 0.88454 0.84072
vt 0.89765 0.83560
vt 0.89765 0.83943
vt 0.87047 0.97224
vt 0.91150 0.83697
vt 0.91076 0.84072
vt 0.92483 0.84101
vt 0.92336 0.84454
vt 0.85819 0.96568
vt 0.93710 0.84757
vt 0.94787 0.85641
vt 0.84743 0.95684
vt 0.95670 0.86717
vt 0.96326 0.87945
vt 0.83860 0.94608
vt 0.96730 0.89277
vt 0.96867 0.90662
vt 0.83203 0.93380
vt 0.96730 0.92048
vt 0.96326 0.93380
vt 0.82799 0.92048
vt 0.95670 0.94608
vt 0.94787 0.95684
vt 0.85982 0.93589
vt 0.85982 0.90081
vt 0.87042 0.90081
vt 0.90316 0.91213
vt 0.89214 0.91213
vt 0.89214 0.90112
vt 0.90316 0.90112
vt 0.87042 0.93589
vt 0.60965 0.77890
vt 0.60965 0.70163
vt 0.58021 0.70163
vt 0.58021 0.77890
vt 0.28074 0.51571
vt 0.11065 0.51571
vt 0.11065 0.61847
vt 0.28074 0.61847
vt 0.01671 0.32404
vt 0.01671 0.47246
vt 0.10466 0.48345
vt 0.10466 0.32404
vt 0.01671 0.12431
vt 0.01671 0.32037
vt 0.10466 0.32037
vt 0.10466 0.13897
vt 0.02770 0.48345
vt 0.54540 0.62564
vt 0.54540 0.53889
vt 0.45718 0.62564
vt 0.45718 0.93441
vt 0.45718 0.98367
vt 0.45718 0.98588
vt 0.01993 0.48023
vt 0.02366 0.48268
vt 0.92326 0.03980
vt 0.57463 0.03980
vt 0.57463 0.01510
vt 0.92326 0.01510
vt 0.67099 0.33392
vt 0.67099 0.23554
vt 0.64184 0.23554
vt 0.64184 0.33392
vt 0.45083 0.51571
vt 0.45083 0.61847
vt 0.57463 0.09179
vt 0.74895 0.09179
vt 0.74895 0.07000
vt 0.57463 0.07000
vt 0.54437 0.53638
vt 0.52439 0.51640
vt 0.52188 0.51536
vt 0.64184 0.14196
vt 0.64184 0.21848
vt 0.67099 0.21848
vt 0.67099 0.14196
vt 0.53343 0.01437
vt 0.45648 0.01437
vt 0.45648 0.12431
vt 0.54443 0.02536
vt 0.58021 0.21862
vt 0.60939 0.21862
vt 0.60939 0.15444
vt 0.58021 0.15444
vt 0.45049 0.11720
vt 0.45049 0.01453
vt 0.28057 0.01453
vt 0.28057 0.11720
vt 0.54443 0.12431
vt 0.11064 0.11720
vt 0.64184 0.68007
vt 0.67099 0.68007
vt 0.45648 0.48345
vt 0.53343 0.48345
vt 0.54443 0.47246
vt 0.54121 0.48023
vt 0.54366 0.47650
vt 0.45535 0.93441
vt 0.45648 0.13897
vt 0.10466 0.12431
vt 0.11064 0.01453
vt 0.92327 0.09179
vt 0.92327 0.07000
vt 0.11030 0.93926
vt 0.11030 0.98791
vt 0.45118 0.98684
vt 0.45118 0.93926
vt 0.54540 0.82230
vt 0.45718 0.82230
vt 0.11064 0.01099
vt 0.44729 0.61847
vt 0.11065 0.51216
vt 0.45083 0.51216
vt 0.44906 0.61847
vt 0.45049 0.01099
vt 0.10982 0.14800
vt 0.10982 0.48024
vt 0.45132 0.48131
vt 0.45132 0.14800
vt 0.67099 0.77364
vt 0.67098 0.69713
vt 0.64184 0.69713
vt 0.64184 0.77364
vt 0.10466 0.32220
vt 0.58021 0.53322
vt 0.58204 0.53504
vt 0.60756 0.53504
vt 0.60939 0.53322
vt 0.10430 0.93441
vt 0.10430 0.98588
vt 0.10430 0.98477
vt 0.10466 0.48125
vt 0.45648 0.48235
vt 0.01854 0.32220
vt 0.45351 0.93441
vt 0.34203 0.73843
vt 0.34323 0.75062
vt 0.45351 0.62564
vt 0.34203 0.76281
vt 0.33847 0.72671
vt 0.33270 0.71590
vt 0.33847 0.77453
vt 0.32493 0.70643
vt 0.33270 0.78534
vt 0.32493 0.79481
vt 0.31546 0.69866
vt 0.31546 0.80258
vt 0.30466 0.69289
vt 0.30466 0.80835
vt 0.29293 0.68933
vt 0.29293 0.81191
vt 0.28074 0.68813
vt 0.10430 0.62564
vt 0.28074 0.81311
vt 0.26855 0.68933
vt 0.26855 0.81191
vt 0.25683 0.69289
vt 0.25683 0.80835
vt 0.24602 0.69866
vt 0.24602 0.80258
vt 0.23655 0.70643
vt 0.23655 0.79481
vt 0.22878 0.71590
vt 0.22878 0.78534
vt 0.22301 0.72671
vt 0.22301 0.77453
vt 0.21945 0.73843
vt 0.21945 0.76281
vt 0.21825 0.75062
vt 0.58021 0.33811
vt 0.60939 0.33811
vt 0.45535 0.82414
vt 0.54357 0.82414
vt 0.54540 0.82597
vt 0.45718 0.82597
vt 0.60939 0.53686
vt 0.58021 0.53686
vt 0.45535 0.62564
vt 0.28074 0.62564
vt 0.30174 0.80132
vt 0.31123 0.79625
vt 0.22692 0.73991
vt 0.22586 0.75062
vt 0.23004 0.72962
vt 0.29145 0.80445
vt 0.23511 0.72013
vt 0.24193 0.71181
vt 0.28074 0.80550
vt 0.25025 0.70499
vt 0.25974 0.69992
vt 0.27003 0.80445
vt 0.27003 0.69679
vt 0.28074 0.69574
vt 0.25974 0.80132
vt 0.29145 0.69679
vt 0.30174 0.69992
vt 0.25025 0.79625
vt 0.31123 0.70499
vt 0.31955 0.71181
vt 0.24193 0.78943
vt 0.32637 0.72013
vt 0.33144 0.72962
vt 0.23511 0.78111
vt 0.33457 0.73991
vt 0.33562 0.75062
vt 0.23004 0.77162
vt 0.33457 0.76133
vt 0.33144 0.77162
vt 0.22692 0.76133
vt 0.32637 0.78111
vt 0.31955 0.78943
vt 0.28074 0.75062
vt 0.10430 0.51536
vt 0.02711 0.51536
vt 0.01608 0.52639
vt 0.01608 0.62564
vt 0.01608 0.97485
vt 0.01931 0.98265
vt 0.02305 0.98510
vt 0.02711 0.98588
vt 0.01685 0.97891
vt 0.53438 0.98588
vt 0.53844 0.98510
vt 0.54218 0.98265
vt 0.54540 0.97485
vt 0.64184 0.68416
vt 0.67099 0.68416
vt 0.58021 0.68456
vt 0.60939 0.68456
vt 0.67099 0.23144
vt 0.64184 0.23144
vt 0.58021 0.68866
vt 0.60939 0.68866
vt 0.64184 0.68860
vt 0.67099 0.68860
vt 0.64184 0.69303
vt 0.67099 0.69303
vt 0.67099 0.22701
vt 0.64184 0.22701
vt 0.67099 0.22258
vt 0.64184 0.22258
vt 0.58021 0.69310
vt 0.60939 0.69310
vt 0.58021 0.69753
vt 0.60939 0.69753
vt 0.60939 0.70163
vt 0.01671 0.03782
vt 0.10466 0.01437
vt 0.04016 0.01437
vt 0.03766 0.01541
vt 0.01775 0.03532
vt 0.60939 0.25204
vt 0.58021 0.25204
vt 0.60939 0.22132
vt 0.58021 0.22132
vt 0.60939 0.24935
vt 0.58021 0.24935
vt 0.66311 0.98490
vt 0.76929 0.98490
vt 0.57463 0.85881
vt 0.61002 0.85881
vt 0.61002 0.82784
vt 0.57463 0.82784
vt 0.78699 0.85881
vt 0.78699 0.96720
vt 0.66311 0.97430
vt 0.78180 0.97972
vt 0.61002 0.98490
vt 0.66311 0.87343
vt 0.66311 0.85881
vt 0.78699 0.82784
vt 0.66311 0.82784
vt 0.61002 0.87343
vt 0.78575 0.97372
vt 0.77581 0.98366
vt 0.57981 0.97972
vt 0.58581 0.98366
vt 0.59233 0.98490
vt 0.54463 0.97891
vt 0.57463 0.96720
vt 0.57587 0.97372
vt 0.61554 0.96382
vt 0.61554 0.88390
vt 0.65760 0.96382
vt 0.61002 0.97430
vt 0.65760 0.88390
vt 0.45718 0.51536
vt 0.54366 0.02132
vt 0.54121 0.01759
vt 0.53748 0.01514
vt 0.01931 0.51859
vt 0.01685 0.52233
vt 0.02305 0.51614
vt 0.53748 0.48268
vt 0.01748 0.47650
# 441 texture coordinates

vn 0.932008 0.362438 -0
vn 0.924341 0.359456 -0.128007
vn 0.976706 0.17222 -0.128007
vn 0.984808 0.173648 -0
vn 0 0 -1
vn 0.999762 -0.0218148 -0
vn 0.991537 -0.0216354 -0.128007
vn 0.968264 -0.214659 -0.128007
vn 0.976296 -0.21644 -0
vn 0.907782 -0.399433 -0.128007
vn 0.915312 -0.402747 -0
vn 0.812413 -0.568858 -0.128007
vn 0.819152 -0.573576 -0
vn 0.685824 -0.716421 -0.128007
vn 0.691513 -0.722364 -0
vn 0.532879 -0.836453 -0.128007
vn 0.5373 -0.843391 -0
vn 0.359456 -0.924341 -0.128007
vn 0.362438 -0.932008 -0
vn 0.17222 -0.976706 -0.128007
vn 0.173648 -0.984808 -0
vn -0.0216354 -0.991537 -0.128007
vn -0.0218148 -0.999762 -0
vn -0.214659 -0.968264 -0.128007
vn -0.21644 -0.976296 -0
vn -0.399433 -0.907782 -0.128007
vn -0.402747 -0.915312 -0
vn -0.568858 -0.812413 -0.128007
vn -0.573576 -0.819152 -0
vn -0.0510671 -0.116059 -0.991929
vn -0.0727277 -0.103866 -0.991929
vn -0.0915936 -0.0876818 -0.991929
vn -0.106939 -0.068128 -0.991929
vn -0.716421 -0.685824 -0.128007
vn -0.722364 -0.691513 -0
vn -0.843391 -0.5373 -0
vn -0.836453 -0.532879 -0.128007
vn -0.924341 -0.359456 -0.128007
vn -0.932008 -0.362438 -0
vn -0.976706 -0.17222 -0.128007
vn -0.984808 -0.173648 -0
vn -0.124871 -0.022018 -0.991929
vn -0.126767 0.00276607 -0.991929
vn -0.118176 -0.045956 -0.991929
vn -0.991537 0.0216354 -0.128007
vn -0.999762 0.0218148 -0
vn -0.976296 0.21644 -0
vn -0.968264 0.214659 -0.128007
vn -0.907782 0.399433 -0.128007
vn -0.915312 0.402747 -0
vn -0.116059 0.0510671 -0.991929
vn -0.103866 0.0727277 -0.991929
vn 0.118176 0.045956 -0.991929
vn 0.124871 0.022018 -0.991929
vn -0.123791 0.0274439 -0.991929
vn -0.812413 0.568858 -0.128007
vn -0.819152 0.573576 -0
vn -0.685824 0.716421 -0.128007
vn -0.691513 0.722364 -0
vn -0.0876818 0.0915936 -0.991929
vn -0.068128 0.106939 -0.991929
vn -0.532879 0.836453 -0.128007
vn -0.5373 0.843391 -0
vn -0.045956 0.118176 -0.991929
vn -0.359456 0.924341 -0.128007
vn -0.362438 0.932008 -0
vn -0.022018 0.124871 -0.991929
vn -0.17222 0.976706 -0.128007
vn -0.173648 0.984808 -0
vn 0.00276607 0.126767 -0.991929
vn 0.0216354 0.991537 -0.128007
vn 0.0218148 0.999762 -0
vn 0.0274439 0.123791 -0.991929
vn 0.214659 0.968264 -0.128007
vn 0.21644 0.976296 -0
vn 0.0510671 0.116059 -0.991929
vn 0.399433 0.907782 -0.128007
vn 0.402747 0.915312 -0
vn 0.0727277 0.103866 -0.991929
vn 0.568858 0.812413 -0.128007
vn 0.573576 0.819152 -0
vn 0.0915936 0.0876818 -0.991929
vn 0.716421 0.685824 -0.128007
vn 0.722364 0.691513 -0
vn 0.106939 0.068128 -0.991929
vn 0.836453 0.532879 -0.128007
vn 0.843391 0.5373 -0
vn -0.599236 0.625971 -0.499076
vn -0.465602 0.730848 -0.499076
vn 0.853394 0.150476 -0.499075
vn 0.866352 -0.0189039 -0.499076
vn 0.846018 -0.187558 -0.499076
vn -0.314074 0.807639 -0.499076
vn 0.793171 -0.349003 -0.499076
vn 0.709843 -0.497037 -0.499076
vn -0.150476 0.853394 -0.499075
vn 0.599236 -0.625971 -0.499076
vn 0.465602 -0.730848 -0.499076
vn 0.0189039 0.866352 -0.499076
vn 0.314074 -0.807639 -0.499076
vn 0.150476 -0.853394 -0.499075
vn 0.187558 0.846018 -0.499076
vn -0.0189039 -0.866352 -0.499076
vn -0.187558 -0.846018 -0.499076
vn 0.349003 0.793171 -0.499076
vn -0.349003 -0.793171 -0.499076
vn -0.497037 -0.709843 -0.499076
vn 0.497037 0.709843 -0.499076
vn -0.625971 -0.599236 -0.499076
vn -0.730848 -0.465602 -0.499076
vn 0.625971 0.599236 -0.499076
vn -0.807639 -0.314074 -0.499076
vn -0.853394 -0.150476 -0.499075
vn 0.730848 0.465602 -0.499076
vn -0.866352 0.0189039 -0.499076
vn -0.846018 0.187558 -0.499076
vn 0.807639 0.314074 -0.499076
vn -0.793171 0.349003 -0.499076
vn -0.709843 0.497037 -0.499076
vn -0.342619 0.357904 -0.86863
vn -0.266212 0.417869 -0.86863
vn 0.487935 0.0860361 -0.86863
vn 0.495344 -0.0108085 -0.86863
vn 0.126767 -0.00276607 -0.991929
vn 0.483718 -0.107238 -0.86863
vn 0.123791 -0.0274439 -0.991929
vn -0.179574 0.461775 -0.868629
vn 0.453502 -0.199546 -0.86863
vn 0.116059 -0.0510671 -0.991929
vn 0.405859 -0.284185 -0.86863
vn 0.103866 -0.0727277 -0.991929
vn -0.0860361 0.487935 -0.86863
vn 0.342619 -0.357904 -0.86863
vn 0.0876818 -0.0915936 -0.991929
vn 0.266212 -0.417869 -0.86863
vn 0.068128 -0.106939 -0.991929
vn 0.0108085 0.495344 -0.86863
vn 0.179574 -0.461775 -0.868629
vn 0.045956 -0.118176 -0.991929
vn 0.0860361 -0.487935 -0.86863
vn 0.022018 -0.124871 -0.991929
vn 0.107238 0.483718 -0.86863
vn -0.0108085 -0.495344 -0.86863
vn -0.00276607 -0.126767 -0.991929
vn -0.107238 -0.483718 -0.86863
vn -0.0274439 -0.123791 -0.991929
vn 0.199546 0.453502 -0.86863
vn -0.199546 -0.453502 -0.86863
vn -0.284185 -0.405859 -0.86863
vn 0.284185 0.405859 -0.86863
vn -0.357904 -0.342619 -0.86863
vn -0.417869 -0.266212 -0.86863
vn 0.357904 0.342619 -0.86863
vn -0.461775 -0.179574 -0.868629
vn -0.487935 -0.0860361 -0.86863
vn 0.417869 0.266212 -0.86863
vn -0.495344 0.0108085 -0.86863
vn -0.483718 0.107238 -0.86863
vn 0.461775 0.179574 -0.868629
vn -0.453502 0.199546 -0.86863
vn -0.405859 0.284185 -0.86863
vn -0.984808 -0.173648 -0
vn -0.173648 0.984808 -0
vn 0.984808 0.173648 -0
vn 0.173648 -0.984808 -0
vn -0.173648 0.984808 -0
vn -0.265548 0.964098 -0
vn 0 0 1
vn 0.984808 0.173648 1.66063e-006
vn 0.984808 0.173647 8.30313e-007
vn -0.176725 0.98426 -0
vn 0.984808 0.173648 -0
vn 0.996778 0.0802068 -0
vn 0.173648 -0.984808 -0
vn 0.173648 -0.984808 -0
vn 0.173648 -0.984808 -0
vn 0.265548 -0.964098 -0
vn -0.0218111 -0.999762 -0
vn 0.173648 -0.984808 -0
vn 0.173648 -0.984808 -3.17891e-007
vn 0.173648 -0.984808 -4.76837e-007
vn 0.173648 -0.984808 -4.76837e-007
vn 0.964098 0.265548 -0
vn -0.173652 0.984807 -0
vn -0.17365 0.984808 4.98646e-006
vn -0.17365 0.984807 1.00335e-005
vn 0.173648 -0.984808 -0
vn -0.173648 0.984808 -0
vn -0.984808 -0.173648 -1.27157e-007
vn -0.984808 -0.173648 6.57706e-008
vn 0.173648 -0.984808 3.21238e-007
vn 0.984808 0.173648 -0
vn 0.984808 0.173648 -0
vn 0.173648 -0.984808 9.57021e-007
vn -0.984808 -0.173648 -2.54313e-007
vn 0.984808 0.173648 6.57706e-008
vn 0.984808 0.173648 1.31541e-007
vn 0.17365 -0.984808 -8.47711e-007
vn 0.17365 -0.984807 -1.90735e-006
vn -0.984808 -0.173648 1.31541e-007
vn -0.173648 0.984808 -0
vn -0.0802068 0.996778 -0
vn 0.984808 0.173648 2.04914e-006
vn 0.984808 0.173648 -2.43653e-006
vn 0.984808 0.173648 3.13765e-007
vn -0.819153 0.573575 -0
vn -0.984808 -0.173648 2.49772e-006
vn -0.984807 -0.173653 1.24886e-006
vn 0.984808 0.173647 1.12594e-006
vn -0.984808 -0.173648 -3.24655e-006
vn -0.984807 -0.173653 -1.62328e-006
vn 0.984808 0.173648 -3.15699e-006
vn 0.984808 0.173647 -1.5785e-006
vn 0.122788 -0.696365 0.707106
vn -0.173648 0.984808 4.98646e-006
vn -0.173648 0.984808 -2.55377e-006
vn -0.122788 0.696364 0.707107
vn -0.122788 0.696364 -0.707107
vn 0.122788 -0.696365 -0.707106
vn -0.173648 0.984808 -0
vn -0.57358 -0.81915 -0
vn 0.696364 0.122788 -0.707107
vn -0.696365 -0.122788 -0.707106
vn -0.696364 -0.122788 -0.707107
vn 0.173652 -0.984807 -0
vn 0.696364 0.122788 -0.707107
vn -0.696366 -0.122788 -0.707105
vn 0.5373 -0.843391 -0
vn -0.999762 0.0218148 -0
vn -0.984808 -0.173648 -0
vn -0.984808 -0.173648 -0
vn -0.976296 0.21644 -0
vn 0.362438 -0.932008 -0
vn -0.915311 0.402747 -0
vn 0.173648 -0.984808 -0
vn -0.5373 0.843391 -0
vn -0.0218148 -0.999762 -0
vn -0.362438 0.932008 -0
vn -0.173648 0.984808 -0
vn -0.21644 -0.976296 -0
vn 0.0218148 0.999762 -0
vn 0.21644 0.976296 -0
vn -0.402747 -0.915311 -0
vn 0.402747 0.915311 -0
vn 0.843391 0.5373 -0
vn 0.932008 0.362438 -0
vn 0.984808 0.173648 -0
vn -0.843391 -0.5373 -0
vn 0.999762 -0.0218148 -0
vn 0.976296 -0.21644 -0
vn -0.932008 -0.362438 -0
vn 0.915311 -0.402747 -0
vn -0.984808 -0.173648 -0
vn -0.984808 -0.173648 -0
vn 0.847594 0.530645 -0
vn -0.984808 -0.173648 -0
vn -0.996778 -0.0802068 -0
vn 0.977969 -0.208748 -0
vn -0.977969 0.208748 -0
vn 0.573577 0.819151 -0
vn 0.208751 0.977969 -0
vn 0.819152 -0.573576 -0
vn 0.530644 -0.847595 -0
vn -0.819152 0.573576 -0
vn -0.530644 0.847595 -0
vn -0.932009 -0.362435 -0
vn -0.402743 -0.915313 -0
vn -0.722366 -0.69151 -0
vn 0.173648 -0.984808 -0
vn 0.964098 0.265548 -0
vn -0.173648 0.984808 -0
vn 0.173648 -0.984808 -0
vn 0.173648 -0.984808 -0
vn -0.265549 0.964097 -0
vn -0.984808 -0.173648 -0
vn -0.996778 -0.0802069 -0
vn -0.984808 -0.173648 -0
vn -0.530645 0.847594 -0
vn 0.847593 0.530646 -0
vn 0.20875 0.977969 -0
vn -0.819151 0.573577 -0
vn -0.977969 0.20875 -0
vn 0.573576 0.819152 -0
# 283 vertex normals

usemtl Disk
f 2/2/4 107/2/3 129/1/2 64/1/1
f 200/5/5 180/4/5 183/3/5
f 6/7/9 68/7/8 66/6/7 4/6/6
f 181/8/5 180/4/5 200/5/5
f 178/10/5 179/9/5 200/5/5
f 176/12/5 178/10/5 198/11/5
f 175/14/5 177/13/5 198/11/5
f 198/11/5 172/16/5 174/15/5
f 173/17/5 172/16/5 198/11/5
f 170/19/5 171/18/5 198/11/5
f 169/21/5 170/19/5 197/20/5
f 8/22/11 70/22/10 68/7/8 6/7/9
f 194/25/5 167/24/5 168/23/5
f 10/26/13 72/26/12 70/22/10 8/22/11
f 166/27/5 167/24/5 194/25/5
f 12/28/15 74/28/14 72/26/12 10/26/13
f 165/30/5 166/27/5 195/29/5
f 195/29/5 163/32/5 164/31/5
f 195/29/5 162/33/5 163/32/5
f 14/34/17 77/34/16 74/28/14 12/28/15
f 16/35/19 78/35/18 77/34/16 14/34/17
f 195/29/5 182/36/5 162/33/5
f 193/38/5 1/37/5 182/36/5
f 192/39/5 1/37/5 193/38/5
f 193/38/5 191/40/5 192/39/5
f 190/41/5 191/40/5 193/38/5
f 185/43/5 186/42/5 200/5/5
f 189/45/5 190/41/5 196/44/5
f 187/47/5 188/46/5 196/44/5
f 18/48/21 81/48/20 78/35/18 16/35/19
f 20/49/23 82/49/22 81/48/20 18/48/21
f 186/42/5 196/44/5 200/5/5
f 194/25/5 197/20/5 199/50/5
f 22/51/25 85/51/24 82/49/22 20/49/23
f 24/52/27 86/52/26 85/51/24 22/51/25
f 199/50/5 200/5/5 196/44/5
f 26/53/29 87/53/28 86/52/26 24/52/27
f 90/55/31 174/15/5 172/16/5 88/54/30
f 97/57/33 177/13/5 175/14/5 94/56/32
f 28/58/35 91/58/34 87/53/28 26/53/29
f 32/60/39 92/60/38 93/59/37 30/59/36
f 34/61/41 95/61/40 92/60/38 32/60/39
f 101/63/43 179/9/5 178/10/5 98/62/42
f 184/64/5 185/43/5 200/5/5
f 30/59/36 93/59/37 91/58/34 28/58/35
f 96/65/44 176/12/5 177/13/5 97/57/33
f 98/62/42 178/10/5 176/12/5 96/65/44
f 36/66/46 99/66/45 95/61/40 34/61/41
f 40/68/50 100/68/49 102/67/48 38/67/47
f 38/67/47 102/67/48 99/66/45 36/66/46
f 108/70/52 183/3/5 180/4/5 103/69/51
f 67/72/54 162/33/5 182/36/5 106/71/53
f 105/73/55 181/8/5 179/9/5 101/63/43
f 42/74/57 104/74/56 100/68/49 40/68/50
f 103/69/51 180/4/5 181/8/5 105/73/55
f 44/75/59 109/75/58 104/74/56 42/74/57
f 112/77/61 185/43/5 184/64/5 110/76/60
f 46/78/63 111/78/62 109/75/58 44/75/59
f 114/79/64 186/42/5 185/43/5 112/77/61
f 48/80/66 113/80/65 111/78/62 46/78/63
f 116/81/67 187/47/5 186/42/5 114/79/64
f 50/82/69 115/82/68 113/80/65 48/80/66
f 118/83/70 188/46/5 187/47/5 116/81/67
f 52/84/72 117/84/71 115/82/68 50/82/69
f 120/85/73 189/45/5 188/46/5 118/83/70
f 54/86/75 119/86/74 117/84/71 52/84/72
f 122/87/76 190/41/5 189/45/5 120/85/73
f 56/88/78 121/88/77 119/86/74 54/86/75
f 124/89/79 191/40/5 190/41/5 122/87/76
f 58/90/81 123/90/80 121/88/77 56/88/78
f 126/91/82 192/39/5 191/40/5 124/89/79
f 60/92/84 125/92/83 123/90/80 58/90/81
f 128/93/85 1/37/5 192/39/5 126/91/82
f 62/94/87 127/94/86 125/92/83 60/92/84
f 106/71/53 182/36/5 1/37/5 128/93/85
f 64/1/1 129/1/2 127/94/86 62/94/87
f 111/78/62 33/96/89 29/95/88 109/75/58
f 4/6/6 66/6/7 107/2/3 2/2/4
f 66/6/7 134/98/91 130/97/90 107/2/3
f 68/7/8 136/99/92 134/98/91 66/6/7
f 113/80/65 37/100/93 33/96/89 111/78/62
f 70/22/10 138/101/94 136/99/92 68/7/8
f 72/26/12 140/102/95 138/101/94 70/22/10
f 115/82/68 41/103/96 37/100/93 113/80/65
f 74/28/14 142/104/97 140/102/95 72/26/12
f 77/34/16 145/105/98 142/104/97 74/28/14
f 117/84/71 45/106/99 41/103/96 115/82/68
f 78/35/18 146/107/100 145/105/98 77/34/16
f 81/48/20 149/108/101 146/107/100 78/35/18
f 119/86/74 49/109/102 45/106/99 117/84/71
f 82/49/22 150/110/103 149/108/101 81/48/20
f 85/51/24 153/111/104 150/110/103 82/49/22
f 121/88/77 53/112/105 49/109/102 119/86/74
f 86/52/26 154/113/106 153/111/104 85/51/24
f 87/53/28 156/114/107 154/113/106 86/52/26
f 123/90/80 57/115/108 53/112/105 121/88/77
f 91/58/34 159/116/109 156/114/107 87/53/28
f 93/59/37 160/117/110 159/116/109 91/58/34
f 125/92/83 61/118/111 57/115/108 123/90/80
f 92/60/38 3/119/112 160/117/110 93/59/37
f 95/61/40 7/120/113 3/119/112 92/60/38
f 127/94/86 65/121/114 61/118/111 125/92/83
f 99/66/45 13/122/115 7/120/113 95/61/40
f 102/67/48 15/123/116 13/122/115 99/66/45
f 129/1/2 133/124/117 65/121/114 127/94/86
f 100/68/49 19/125/118 15/123/116 102/67/48
f 104/74/56 25/126/119 19/125/118 100/68/49
f 107/2/3 130/97/90 133/124/117 129/1/2
f 109/75/58 29/95/88 25/126/119 104/74/56
f 33/96/89 31/128/121 27/127/120 29/95/88
f 31/128/121 112/77/61 110/76/60 27/127/120
f 134/98/91 135/130/123 131/129/122 130/97/90
f 135/130/123 69/131/124 67/72/54 131/129/122
f 136/99/92 137/132/125 135/130/123 134/98/91
f 137/132/125 71/133/126 69/131/124 135/130/123
f 37/100/93 35/134/127 31/128/121 33/96/89
f 35/134/127 114/79/64 112/77/61 31/128/121
f 138/101/94 139/135/128 137/132/125 136/99/92
f 139/135/128 73/136/129 71/133/126 137/132/125
f 140/102/95 141/137/130 139/135/128 138/101/94
f 141/137/130 75/138/131 73/136/129 139/135/128
f 41/103/96 39/139/132 35/134/127 37/100/93
f 39/139/132 116/81/67 114/79/64 35/134/127
f 142/104/97 143/140/133 141/137/130 140/102/95
f 143/140/133 76/141/134 75/138/131 141/137/130
f 145/105/98 144/142/135 143/140/133 142/104/97
f 144/142/135 79/143/136 76/141/134 143/140/133
f 45/106/99 43/144/137 39/139/132 41/103/96
f 43/144/137 118/83/70 116/81/67 39/139/132
f 146/107/100 147/145/138 144/142/135 145/105/98
f 147/145/138 80/146/139 79/143/136 144/142/135
f 149/108/101 148/147/140 147/145/138 146/107/100
f 148/147/140 83/148/141 80/146/139 147/145/138
f 49/109/102 47/149/142 43/144/137 45/106/99
f 47/149/142 120/85/73 118/83/70 43/144/137
f 150/110/103 151/150/143 148/147/140 149/108/101
f 151/150/143 84/151/144 83/148/141 148/147/140
f 153/111/104 152/152/145 151/150/143 150/110/103
f 152/152/145 89/153/146 84/151/144 151/150/143
f 53/112/105 51/154/147 47/149/142 49/109/102
f 51/154/147 122/87/76 120/85/73 47/149/142
f 154/113/106 155/155/148 152/152/145 153/111/104
f 155/155/148 88/54/30 89/153/146 152/152/145
f 156/114/107 157/156/149 155/155/148 154/113/106
f 157/156/149 90/55/31 88/54/30 155/155/148
f 57/115/108 55/157/150 51/154/147 53/112/105
f 55/157/150 124/89/79 122/87/76 51/154/147
f 159/116/109 158/158/151 157/156/149 156/114/107
f 158/158/151 94/56/32 90/55/31 157/156/149
f 160/117/110 161/159/152 158/158/151 159/116/109
f 161/159/152 97/57/33 94/56/32 158/158/151
f 61/118/111 59/160/153 55/157/150 57/115/108
f 59/160/153 126/91/82 124/89/79 55/157/150
f 3/119/112 5/161/154 161/159/152 160/117/110
f 5/161/154 96/65/44 97/57/33 161/159/152
f 7/120/113 9/162/155 5/161/154 3/119/112
f 9/162/155 98/62/42 96/65/44 5/161/154
f 65/121/114 63/163/156 59/160/153 61/118/111
f 63/163/156 128/93/85 126/91/82 59/160/153
f 13/122/115 11/164/157 9/162/155 7/120/113
f 11/164/157 101/63/43 98/62/42 9/162/155
f 15/123/116 17/165/158 11/164/157 13/122/115
f 17/165/158 105/73/55 101/63/43 11/164/157
f 133/124/117 132/166/159 63/163/156 65/121/114
f 132/166/159 106/71/53 128/93/85 63/163/156
f 19/125/118 21/167/160 17/165/158 15/123/116
f 21/167/160 103/69/51 105/73/55 17/165/158
f 25/126/119 23/168/161 21/167/160 19/125/118
f 23/168/161 108/70/52 103/69/51 21/167/160
f 130/97/90 131/129/122 132/166/159 133/124/117
f 131/129/122 67/72/54 106/71/53 132/166/159
f 29/95/88 27/127/120 23/168/161 25/126/119
f 27/127/120 110/76/60 108/70/52 23/168/161
f 110/76/60 184/64/5 183/3/5 108/70/52
f 69/131/124 163/32/5 162/33/5 67/72/54
f 71/133/126 164/31/5 163/32/5 69/131/124
f 73/136/129 165/30/5 164/31/5 71/133/126
f 75/138/131 166/27/5 165/30/5 73/136/129
f 79/143/136 168/23/5 167/24/5 76/141/134
f 76/141/134 167/24/5 166/27/5 75/138/131
f 83/148/141 170/19/5 169/21/5 80/146/139
f 80/146/139 169/21/5 168/23/5 79/143/136
f 89/153/146 173/17/5 171/18/5 84/151/144
f 84/151/144 171/18/5 170/19/5 83/148/141
f 94/56/32 175/14/5 174/15/5 90/55/31
f 88/54/30 172/16/5 173/17/5 89/153/146
f 179/9/5 181/8/5 200/5/5
f 198/11/5 178/10/5 200/5/5
f 177/13/5 176/12/5 198/11/5
f 174/15/5 175/14/5 198/11/5
f 171/18/5 173/17/5 198/11/5
f 197/20/5 170/19/5 198/11/5
f 168/23/5 169/21/5 197/20/5
f 197/20/5 194/25/5 168/23/5
f 195/29/5 166/27/5 194/25/5
f 164/31/5 165/30/5 195/29/5
f 196/44/5 194/25/5 199/50/5
f 195/29/5 193/38/5 182/36/5
f 183/3/5 184/64/5 200/5/5
f 196/44/5 190/41/5 193/38/5
f 188/46/5 189/45/5 196/44/5
f 186/42/5 187/47/5 196/44/5
f 195/29/162 207/170/162 205/169/162 193/38/162
f 194/25/163 206/171/163 207/170/163 195/29/163
f 199/50/21 203/173/21 204/172/21 200/5/21
f 197/20/41 201/174/41 203/173/41 199/50/41
f 198/11/69 202/175/69 201/174/69 197/20/69
f 200/5/4 204/172/4 202/175/4 198/11/4
f 196/44/164 208/176/164 206/171/164 194/25/164
f 193/38/165 205/169/165 208/176/165 196/44/165
f 224/180/166 341/179/167 340/178/167 222/177/166
f 234/184/5 246/183/5 242/182/5 238/181/5
f 264/188/168 222/187/168 339/186/168 263/185/168
f 255/192/168 265/191/168 262/190/168 225/189/168
f 222/187/168 340/193/168 339/186/168
f 232/196/5 363/195/5 228/194/5
f 250/197/169 224/199/170 260/198/170 253/197/169
f 340/193/168 355/201/168 354/200/168
f 258/205/171 260/204/171 259/203/171 257/202/171
f 226/209/172 343/208/173 342/207/173 227/206/172
f 248/211/5 234/184/5 238/181/5 244/210/5
f 244/215/174 238/214/175 235/213/175 243/212/174
f 209/218/5 366/217/5 367/216/5 363/195/5
f 219/222/176 345/221/177 344/220/177 217/219/176
f 229/225/168 217/224/168 344/223/168
f 344/223/168 343/226/168 229/225/168
f 209/218/5 363/195/5 232/196/5
f 223/230/179 221/229/179 215/228/178 209/227/178
f 237/234/168 235/233/168 241/232/168 245/231/168
f 229/225/168 343/226/168 226/235/168
f 229/231/182 231/236/181 237/234/180
f 227/206/172 347/238/183 346/237/183 226/209/172
f 346/241/168 349/240/168 218/239/168
f 346/241/168 210/243/168 211/242/168
f 253/197/186 261/244/185 250/197/184
f 255/192/168 231/246/168 229/225/168 251/245/168
f 237/234/168 247/236/168 243/247/168 235/233/168
f 238/214/175 242/249/187 241/248/187 235/213/175
f 253/253/5 260/252/5 258/251/5 249/250/5
f 239/255/5 232/196/5 228/194/5 236/254/5
f 251/245/188 252/245/188 256/192/188 255/192/188
f 217/210/190 241/210/190 242/210/189 219/210/189
f 230/183/191 246/183/175 234/184/182
f 221/256/193 243/247/193 247/236/192 231/236/192
f 269/257/194 230/183/191 234/184/182
f 219/258/189 242/182/189 246/183/195 230/183/195
f 232/211/197 248/211/197 244/210/196 223/259/196
f 248/211/199 271/260/198 234/184/182
f 223/258/196 244/258/196 243/258/193 221/258/193
f 237/234/180 245/231/175 229/231/182
f 229/231/200 245/231/200 241/232/190 217/261/190
f 231/236/181 247/236/187 237/234/180
f 251/245/168 229/225/168 226/235/168
f 252/265/168 257/264/168 259/263/168 256/262/168
f 225/189/168 231/246/168 255/192/168
f 226/235/168 346/241/168 251/245/168
f 218/269/201 349/268/202 348/267/202 220/266/201
f 240/270/205 265/191/204 255/192/204 256/192/203
f 262/274/206 267/273/206 268/272/206 236/271/206
f 249/275/207 258/277/208 220/276/208 254/275/207
f 240/270/205 256/192/203 259/278/209
f 218/239/211 257/279/211 252/245/210 251/245/210
f 259/278/209 222/187/213 264/188/212 240/270/205
f 220/199/208 258/199/208 257/199/211 218/199/211
f 222/277/213 259/277/209 260/277/170 224/277/170
f 263/185/214 267/280/214 240/270/214 264/188/214
f 270/281/216 261/244/185 249/275/215
f 269/284/5 280/283/5 279/282/5
f 281/285/5 280/283/5 269/284/5 270/281/5
f 269/284/5 279/282/5 333/286/5
f 269/284/5 333/286/5 278/287/5
f 282/288/5 281/285/5 270/281/5
f 269/284/5 278/287/5 331/289/5
f 283/290/5 282/288/5 270/281/5
f 284/291/5 283/290/5 270/281/5
f 269/284/5 331/289/5 330/292/5
f 317/293/5 284/291/5 270/281/5
f 269/284/5 330/292/5 328/294/5
f 273/295/5 317/293/5 270/281/5
f 269/284/5 328/294/5 327/296/5
f 276/297/5 273/295/5 270/281/5
f 230/299/5 269/284/5 327/296/5 325/298/5
f 254/275/5 320/300/5 276/297/5 270/281/5
f 230/299/5 325/298/5 324/301/5
f 323/302/5 320/300/5 254/275/5
f 230/299/5 324/301/5 322/303/5
f 326/304/5 323/302/5 254/275/5
f 230/299/5 322/303/5 321/305/5
f 329/306/5 326/304/5 254/275/5
f 230/299/5 321/305/5 319/307/5
f 332/308/5 329/306/5 254/275/5
f 230/299/5 319/307/5 277/309/5
f 334/310/5 332/308/5 254/275/5
f 230/299/5 277/309/5 275/311/5
f 335/312/5 334/310/5 254/275/5
f 230/299/5 275/311/5 274/313/5
f 336/314/5 335/312/5 254/275/5
f 254/275/5 230/299/5 274/313/5 318/315/5
f 318/315/5 336/314/5 254/275/5
f 265/191/217 240/270/217 267/280/217 262/190/217
f 225/317/162 262/274/41 236/271/41 228/316/162
f 236/254/218 268/319/218 272/318/218 239/255/218
f 233/321/219 272/318/219 268/319/219 266/320/219
f 254/275/220 270/281/216 249/275/215
f 266/323/221 268/272/221 267/273/221 263/322/221
f 250/197/222 261/244/222 272/318/222 233/321/222
f 253/197/186 249/275/215 261/244/185
f 272/318/223 261/244/224 270/281/223
f 248/196/199 232/196/225 271/324/198
f 239/255/226 272/318/226 271/324/226 232/196/226
f 271/324/227 272/318/223 270/281/223 269/284/227
f 271/324/198 269/284/194 234/325/182
f 306/327/15 317/293/15 273/295/228 307/326/228
f 285/329/231 318/315/230 274/313/229 286/328/229
f 286/328/229 274/313/229 275/311/232 287/330/232
f 307/326/228 273/295/228 276/297/233 308/331/233
f 287/330/232 275/311/232 277/309/234 288/332/234
f 288/332/234 277/309/234 319/307/57 289/333/57
f 308/331/233 276/297/233 320/300/235 309/334/235
f 289/333/57 319/307/57 321/305/59 290/335/59
f 290/335/59 321/305/59 322/303/236 291/336/236
f 309/334/235 320/300/235 323/302/237 310/337/237
f 291/336/236 322/303/236 324/301/238 292/338/238
f 292/338/238 324/301/238 325/298/239 293/339/239
f 310/337/237 323/302/237 326/304/240 311/340/240
f 293/339/239 325/298/239 327/296/241 294/341/241
f 294/341/241 327/296/241 328/294/242 295/342/242
f 311/340/240 326/304/240 329/306/243 312/343/243
f 295/342/242 328/294/242 330/292/244 296/344/244
f 296/344/244 330/292/244 331/289/81 297/345/81
f 312/343/243 329/306/243 332/308/29 313/346/29
f 297/345/81 331/289/81 278/287/84 298/347/84
f 298/347/84 278/287/84 333/286/245 299/348/245
f 313/346/29 332/308/29 334/310/35 314/349/35
f 299/348/245 333/286/245 279/282/246 300/350/246
f 300/350/246 279/282/246 280/283/247 301/351/247
f 314/349/35 334/310/35 335/312/248 315/352/248
f 301/351/247 280/283/247 281/285/249 302/353/249
f 302/353/249 281/285/249 282/288/250 303/354/250
f 315/352/248 335/312/248 336/314/251 316/355/251
f 303/354/250 282/288/250 283/290/252 304/356/252
f 304/356/252 283/290/252 284/291/13 305/357/13
f 316/355/251 336/314/251 318/315/254 285/329/253
f 305/357/13 284/291/13 317/293/15 306/327/15
f 314/349/5 337/358/5 313/346/5
f 315/352/5 337/358/5 314/349/5
f 316/355/5 337/358/5 315/352/5
f 285/329/5 337/358/5 316/355/5
f 286/328/5 337/358/5 285/329/5
f 287/330/5 337/358/5 286/328/5
f 288/332/5 337/358/5 287/330/5
f 289/333/5 337/358/5 288/332/5
f 290/335/5 337/358/5 289/333/5
f 291/336/5 337/358/5 290/335/5
f 292/338/5 337/358/5 291/336/5
f 293/339/5 337/358/5 292/338/5
f 294/341/5 337/358/5 293/339/5
f 295/342/5 337/358/5 294/341/5
f 296/344/5 337/358/5 295/342/5
f 297/345/5 337/358/5 296/344/5
f 298/347/5 337/358/5 297/345/5
f 299/348/5 337/358/5 298/347/5
f 300/350/5 337/358/5 299/348/5
f 301/351/5 337/358/5 300/350/5
f 302/353/5 337/358/5 301/351/5
f 303/354/5 337/358/5 302/353/5
f 304/356/5 337/358/5 303/354/5
f 305/357/5 337/358/5 304/356/5
f 306/327/5 337/358/5 305/357/5
f 307/326/5 337/358/5 306/327/5
f 308/331/5 337/358/5 307/326/5
f 309/334/5 337/358/5 308/331/5
f 310/337/5 337/358/5 309/334/5
f 311/340/5 337/358/5 310/337/5
f 312/343/5 337/358/5 311/340/5
f 313/346/5 337/358/5 312/343/5
f 230/299/5 345/360/5 219/359/5
f 230/299/5 227/362/5 342/361/5
f 342/361/5 345/360/5 230/299/5
f 347/363/5 227/362/5 230/299/5 254/275/5
f 348/366/5 216/365/5 214/364/5
f 214/364/5 213/367/5 347/363/5
f 254/275/5 220/276/5 347/363/5
f 351/370/5 352/369/5 341/368/5
f 338/371/5 224/199/5 250/197/5 233/321/5 266/320/5
f 341/368/5 338/371/5 351/370/5
f 347/238/183 213/373/255 210/372/255 346/237/183
f 263/322/256 339/375/257 338/374/257 266/323/256
f 343/208/173 359/377/258 356/376/258 342/207/173
f 339/375/257 353/379/259 350/378/259 338/374/257
f 213/373/255 214/381/260 211/380/260 210/372/255
f 214/381/260 216/383/261 212/382/261 211/380/260
f 216/383/261 348/267/202 349/268/202 212/382/261
f 359/377/258 360/385/262 357/384/262 356/376/258
f 360/385/262 361/387/263 358/386/263 357/384/262
f 361/387/263 344/220/177 345/221/177 358/386/263
f 353/379/259 354/389/264 351/388/264 350/378/259
f 354/389/264 355/391/265 352/390/265 351/388/264
f 355/391/265 340/392/167 341/179/167 352/390/265
f 231/246/168 225/189/168 362/393/168
f 215/395/168 221/394/168 231/246/168
f 362/393/168 364/397/168 365/396/168 215/395/168
f 228/316/162 363/399/266 362/398/266 225/317/162
f 366/401/267 209/227/178 215/228/178 365/400/267
f 367/403/268 366/401/267 365/400/267 364/402/268
f 363/399/266 367/403/268 364/402/268 362/398/266
f 378/404/220 393/405/202 392/405/202 376/404/220
f 373/409/269 381/408/179 380/407/179 372/406/269
f 395/411/270 394/411/270 369/410/4 371/410/4
f 393/405/168 378/404/168 385/412/168 394/411/168
f 393/405/168 394/411/168 404/413/168
f 382/414/271 378/404/220 376/404/220 383/414/271
f 385/412/168 389/415/168 394/411/168
f 379/418/175 371/417/272 369/410/272 377/416/175
f 389/415/168 390/419/168 380/407/168 377/416/168
f 394/411/168 405/420/168 404/413/168
f 381/408/179 379/418/175 377/416/175 380/407/179
f 389/415/168 377/416/168 369/410/168 394/411/168
f 387/419/5 388/415/5 379/416/5 381/407/5
f 404/413/168 403/421/168 393/405/168
f 372/406/168 380/407/168 390/419/168
f 396/424/168 406/423/168 407/422/168
f 338/371/5 341/368/5 224/199/5
f 338/371/5 350/425/5 351/370/5
f 407/422/168 368/427/168 399/426/168
f 390/429/192 387/429/192 391/428/192 386/428/192
f 386/428/273 391/428/273 384/430/273 385/430/273
f 390/419/168 386/431/168 399/426/168 372/406/168
f 399/426/168 386/431/168 382/414/168 396/424/168
f 347/363/5 348/366/5 214/364/5
f 220/276/5 348/366/5 347/363/5
f 399/426/168 396/424/168 407/422/168
f 383/414/271 397/424/274 396/424/274 382/414/271
f 385/412/168 378/404/168 382/414/168 386/431/168
f 391/431/5 383/414/5 376/404/5 384/412/5
f 399/426/276 398/426/276 373/406/275 372/406/275
f 389/432/220 388/432/220 387/429/220 390/429/220
f 385/430/277 384/430/277 388/432/277 389/432/277
f 231/246/168 362/393/168 215/395/168
f 223/433/5 209/218/5 232/196/5
f 360/435/168 359/434/168 343/226/168
f 343/226/168 344/223/168 360/435/168
f 344/223/168 361/436/168 360/435/168
f 342/361/5 356/438/5 357/437/5
f 357/437/5 358/439/5 345/360/5
f 345/360/5 342/361/5 357/437/5
f 211/242/168 212/440/168 349/240/168
f 349/240/168 346/241/168 211/242/168
f 218/239/168 251/245/168 346/241/168
f 354/200/168 353/441/168 339/186/168
f 339/186/168 340/193/168 354/200/168
f 398/426/5 397/424/5 383/414/5 391/431/5
f 374/422/5 370/423/5 397/424/5
f 387/419/5 381/407/5 373/406/5
f 373/406/5 398/426/5 391/431/5 387/419/5
f 397/424/5 398/426/5 374/422/5
f 397/424/274 370/423/278 406/423/278 396/424/274
f 388/415/5 371/410/5 379/416/5
f 388/415/5 384/412/5 395/411/5 371/410/5
f 405/420/279 394/411/270 395/411/270 402/420/279
f 384/412/5 376/404/5 392/405/5 395/411/5
f 392/405/5 400/421/5 401/413/5
f 401/413/5 402/420/5 395/411/5
f 393/405/202 403/421/280 400/421/280 392/405/202
f 370/423/278 374/422/281 407/422/281 406/423/278
f 374/422/281 375/427/282 368/427/282 407/422/281
f 375/427/282 398/426/276 399/426/276 368/427/282
f 403/421/280 404/413/283 401/413/283 400/421/280
f 404/413/283 405/420/279 402/420/279 401/413/283
f 398/426/5 375/427/5 374/422/5
f 395/411/5 392/405/5 401/413/5
# 471 facets

